<mxfile host="app.diagrams.net" agent="Mozilla/5.0 (Windows NT 10.0; Win64; x64) AppleWebKit/537.36 (KHTML, like Gecko) Chrome/132.0.0.0 Safari/537.36" version="26.0.10" pages="2">
  <diagram name="Page-1" id="LmkIUaTlcNjjfgPNxiDa">
    <mxGraphModel dx="2194" dy="1544" grid="0" gridSize="10" guides="1" tooltips="1" connect="1" arrows="1" fold="1" page="0" pageScale="1" pageWidth="827" pageHeight="1169" math="0" shadow="0">
      <root>
        <mxCell id="0" />
        <mxCell id="1" parent="0" />
        <mxCell id="PwDJaaIt9xRniJhDqqwZ-2" value="" style="rounded=0;whiteSpace=wrap;html=1;rotation=90;" vertex="1" parent="1">
          <mxGeometry x="-382.81" y="106.8" width="712.62" height="436" as="geometry" />
        </mxCell>
        <mxCell id="PwDJaaIt9xRniJhDqqwZ-19" style="edgeStyle=none;curved=1;rounded=0;orthogonalLoop=1;jettySize=auto;html=1;entryX=0;entryY=0.5;entryDx=0;entryDy=0;fontSize=12;startSize=8;endSize=8;" edge="1" parent="1" source="PwDJaaIt9xRniJhDqqwZ-1" target="PwDJaaIt9xRniJhDqqwZ-6">
          <mxGeometry relative="1" as="geometry">
            <Array as="points">
              <mxPoint x="-159" y="146" />
            </Array>
          </mxGeometry>
        </mxCell>
        <mxCell id="PwDJaaIt9xRniJhDqqwZ-20" style="edgeStyle=none;curved=1;rounded=0;orthogonalLoop=1;jettySize=auto;html=1;entryX=0;entryY=0.5;entryDx=0;entryDy=0;fontSize=12;startSize=8;endSize=8;" edge="1" parent="1" source="PwDJaaIt9xRniJhDqqwZ-1" target="PwDJaaIt9xRniJhDqqwZ-5">
          <mxGeometry relative="1" as="geometry" />
        </mxCell>
        <mxCell id="PwDJaaIt9xRniJhDqqwZ-22" style="edgeStyle=none;curved=1;rounded=0;orthogonalLoop=1;jettySize=auto;html=1;entryX=0;entryY=0.5;entryDx=0;entryDy=0;fontSize=12;startSize=8;endSize=8;" edge="1" parent="1" source="PwDJaaIt9xRniJhDqqwZ-1" target="PwDJaaIt9xRniJhDqqwZ-7">
          <mxGeometry relative="1" as="geometry" />
        </mxCell>
        <mxCell id="PwDJaaIt9xRniJhDqqwZ-23" style="edgeStyle=none;curved=1;rounded=0;orthogonalLoop=1;jettySize=auto;html=1;entryX=0;entryY=0.5;entryDx=0;entryDy=0;fontSize=12;startSize=8;endSize=8;" edge="1" parent="1" source="PwDJaaIt9xRniJhDqqwZ-1" target="PwDJaaIt9xRniJhDqqwZ-8">
          <mxGeometry relative="1" as="geometry" />
        </mxCell>
        <mxCell id="PwDJaaIt9xRniJhDqqwZ-1" value="Utilisateur" style="shape=umlActor;verticalLabelPosition=bottom;verticalAlign=top;html=1;outlineConnect=0;" vertex="1" parent="1">
          <mxGeometry x="-372" y="169" width="30" height="60" as="geometry" />
        </mxCell>
        <mxCell id="PwDJaaIt9xRniJhDqqwZ-29" style="edgeStyle=none;curved=1;rounded=0;orthogonalLoop=1;jettySize=auto;html=1;entryX=0;entryY=0.5;entryDx=0;entryDy=0;fontSize=12;startSize=8;endSize=8;" edge="1" parent="1" source="PwDJaaIt9xRniJhDqqwZ-3" target="PwDJaaIt9xRniJhDqqwZ-25">
          <mxGeometry relative="1" as="geometry" />
        </mxCell>
        <mxCell id="PwDJaaIt9xRniJhDqqwZ-30" style="edgeStyle=none;curved=1;rounded=0;orthogonalLoop=1;jettySize=auto;html=1;entryX=0;entryY=0.5;entryDx=0;entryDy=0;fontSize=12;startSize=8;endSize=8;" edge="1" parent="1" source="PwDJaaIt9xRniJhDqqwZ-3" target="PwDJaaIt9xRniJhDqqwZ-26">
          <mxGeometry relative="1" as="geometry" />
        </mxCell>
        <mxCell id="PwDJaaIt9xRniJhDqqwZ-3" value="Administrateur" style="shape=umlActor;verticalLabelPosition=bottom;verticalAlign=top;html=1;outlineConnect=0;" vertex="1" parent="1">
          <mxGeometry x="-372" y="519" width="30" height="60" as="geometry" />
        </mxCell>
        <mxCell id="PwDJaaIt9xRniJhDqqwZ-33" style="edgeStyle=none;curved=1;rounded=0;orthogonalLoop=1;jettySize=auto;html=1;entryX=1;entryY=0.5;entryDx=0;entryDy=0;fontSize=12;startSize=8;endSize=8;" edge="1" parent="1" source="PwDJaaIt9xRniJhDqqwZ-4" target="PwDJaaIt9xRniJhDqqwZ-31">
          <mxGeometry relative="1" as="geometry" />
        </mxCell>
        <mxCell id="PwDJaaIt9xRniJhDqqwZ-34" style="edgeStyle=none;curved=1;rounded=0;orthogonalLoop=1;jettySize=auto;html=1;entryX=1;entryY=0.5;entryDx=0;entryDy=0;fontSize=12;startSize=8;endSize=8;" edge="1" parent="1" source="PwDJaaIt9xRniJhDqqwZ-4" target="PwDJaaIt9xRniJhDqqwZ-32">
          <mxGeometry relative="1" as="geometry" />
        </mxCell>
        <mxCell id="PwDJaaIt9xRniJhDqqwZ-4" value="Serveur" style="shape=umlActor;verticalLabelPosition=bottom;verticalAlign=top;html=1;outlineConnect=0;" vertex="1" parent="1">
          <mxGeometry x="283" y="285" width="30" height="60" as="geometry" />
        </mxCell>
        <mxCell id="PwDJaaIt9xRniJhDqqwZ-5" value="CU-1.0: Créer un compte" style="ellipse;whiteSpace=wrap;html=1;" vertex="1" parent="1">
          <mxGeometry x="-159" y="-1" width="135" height="80" as="geometry" />
        </mxCell>
        <mxCell id="PwDJaaIt9xRniJhDqqwZ-6" value="CU-1.2: S&#39;authentifier" style="ellipse;whiteSpace=wrap;html=1;" vertex="1" parent="1">
          <mxGeometry x="-159" y="106" width="130" height="80" as="geometry" />
        </mxCell>
        <mxCell id="PwDJaaIt9xRniJhDqqwZ-7" value="CU-1.3: Personnaliser son compte" style="ellipse;whiteSpace=wrap;html=1;" vertex="1" parent="1">
          <mxGeometry x="-159" y="218" width="135" height="80" as="geometry" />
        </mxCell>
        <mxCell id="PwDJaaIt9xRniJhDqqwZ-8" value="CU-1.4: Clavarder" style="ellipse;whiteSpace=wrap;html=1;" vertex="1" parent="1">
          <mxGeometry x="-159" y="324" width="135" height="80" as="geometry" />
        </mxCell>
        <mxCell id="PwDJaaIt9xRniJhDqqwZ-9" value="CU-1.5: Jouer une partie" style="ellipse;whiteSpace=wrap;html=1;" vertex="1" parent="1">
          <mxGeometry x="-200" y="1006" width="135" height="80" as="geometry" />
        </mxCell>
        <mxCell id="PwDJaaIt9xRniJhDqqwZ-25" value="CU-2.0: Gérer les quiz" style="ellipse;whiteSpace=wrap;html=1;" vertex="1" parent="1">
          <mxGeometry x="-159" y="473" width="135" height="80" as="geometry" />
        </mxCell>
        <mxCell id="PwDJaaIt9xRniJhDqqwZ-26" value="CU-2.1: Créer une partie" style="ellipse;whiteSpace=wrap;html=1;" vertex="1" parent="1">
          <mxGeometry x="-159" y="572" width="135" height="80" as="geometry" />
        </mxCell>
        <mxCell id="PwDJaaIt9xRniJhDqqwZ-27" value="CU-1.6: Consulter les informations du jeu" style="ellipse;whiteSpace=wrap;html=1;" vertex="1" parent="1">
          <mxGeometry x="-358" y="1003" width="135" height="80" as="geometry" />
        </mxCell>
        <mxCell id="PwDJaaIt9xRniJhDqqwZ-31" value="CU-3.0: Gérer les connexions utilisateurs&amp;nbsp;" style="ellipse;whiteSpace=wrap;html=1;" vertex="1" parent="1">
          <mxGeometry x="33" y="226" width="135" height="80" as="geometry" />
        </mxCell>
        <mxCell id="PwDJaaIt9xRniJhDqqwZ-32" value="CU-3.1: Stocker les données&amp;nbsp;&amp;nbsp;" style="ellipse;whiteSpace=wrap;html=1;" vertex="1" parent="1">
          <mxGeometry x="33" y="333" width="135" height="80" as="geometry" />
        </mxCell>
      </root>
    </mxGraphModel>
  </diagram>
  <diagram id="P-aJpBpOmW_ZemABuQjC" name="Page-2">
    <mxGraphModel dx="1921" dy="1115" grid="0" gridSize="10" guides="1" tooltips="1" connect="1" arrows="1" fold="1" page="0" pageScale="1" pageWidth="827" pageHeight="1169" math="0" shadow="0">
      <root>
        <mxCell id="0" />
        <mxCell id="1" parent="0" />
        <mxCell id="VAKgGAkGLzUgSfpYYlVm-1" value="" style="rounded=0;whiteSpace=wrap;html=1;rotation=90;" vertex="1" parent="1">
          <mxGeometry x="-347.56" y="71.56" width="509.48" height="303.35" as="geometry" />
        </mxCell>
        <mxCell id="VAKgGAkGLzUgSfpYYlVm-2" style="edgeStyle=none;curved=1;rounded=0;orthogonalLoop=1;jettySize=auto;html=1;entryX=0;entryY=0.5;entryDx=0;entryDy=0;fontSize=12;startSize=8;endSize=8;" edge="1" parent="1" source="VAKgGAkGLzUgSfpYYlVm-6" target="VAKgGAkGLzUgSfpYYlVm-14">
          <mxGeometry relative="1" as="geometry">
            <Array as="points">
              <mxPoint x="-159" y="146" />
            </Array>
          </mxGeometry>
        </mxCell>
        <mxCell id="VAKgGAkGLzUgSfpYYlVm-3" style="edgeStyle=none;curved=1;rounded=0;orthogonalLoop=1;jettySize=auto;html=1;entryX=0;entryY=0.5;entryDx=0;entryDy=0;fontSize=12;startSize=8;endSize=8;" edge="1" parent="1" source="VAKgGAkGLzUgSfpYYlVm-6" target="VAKgGAkGLzUgSfpYYlVm-13">
          <mxGeometry relative="1" as="geometry" />
        </mxCell>
        <mxCell id="VAKgGAkGLzUgSfpYYlVm-4" style="edgeStyle=none;curved=1;rounded=0;orthogonalLoop=1;jettySize=auto;html=1;entryX=0;entryY=0.5;entryDx=0;entryDy=0;fontSize=12;startSize=8;endSize=8;" edge="1" parent="1" source="VAKgGAkGLzUgSfpYYlVm-6" target="VAKgGAkGLzUgSfpYYlVm-15">
          <mxGeometry relative="1" as="geometry" />
        </mxCell>
        <mxCell id="VAKgGAkGLzUgSfpYYlVm-6" value="Utilisateur" style="shape=umlActor;verticalLabelPosition=bottom;verticalAlign=top;html=1;outlineConnect=0;" vertex="1" parent="1">
          <mxGeometry x="-361" y="106" width="30" height="60" as="geometry" />
        </mxCell>
        <mxCell id="VAKgGAkGLzUgSfpYYlVm-13" value="CU-1.0: Rejoindre un canal de chat" style="ellipse;whiteSpace=wrap;html=1;" vertex="1" parent="1">
          <mxGeometry x="-159" y="-1" width="135" height="80" as="geometry" />
        </mxCell>
        <mxCell id="VAKgGAkGLzUgSfpYYlVm-14" value="CU-1.2: Quitter le canal" style="ellipse;whiteSpace=wrap;html=1;" vertex="1" parent="1">
          <mxGeometry x="-159" y="106" width="130" height="80" as="geometry" />
        </mxCell>
        <mxCell id="VAKgGAkGLzUgSfpYYlVm-15" value="CU-1.3: Envoyer un message" style="ellipse;whiteSpace=wrap;html=1;" vertex="1" parent="1">
          <mxGeometry x="-159" y="218" width="135" height="80" as="geometry" />
        </mxCell>
        <mxCell id="VAKgGAkGLzUgSfpYYlVm-25" style="edgeStyle=none;curved=1;rounded=0;orthogonalLoop=1;jettySize=auto;html=1;entryX=0;entryY=0.5;entryDx=0;entryDy=0;fontSize=12;startSize=8;endSize=8;" edge="1" parent="1" source="VAKgGAkGLzUgSfpYYlVm-23" target="VAKgGAkGLzUgSfpYYlVm-24">
          <mxGeometry relative="1" as="geometry" />
        </mxCell>
        <mxCell id="VAKgGAkGLzUgSfpYYlVm-23" value="Utilisateur (Client léger)" style="shape=umlActor;verticalLabelPosition=bottom;verticalAlign=top;html=1;outlineConnect=0;" vertex="1" parent="1">
          <mxGeometry x="-364" y="380" width="30" height="60" as="geometry" />
        </mxCell>
        <mxCell id="VAKgGAkGLzUgSfpYYlVm-24" value="CU-1.4: Recevoir une notification de message" style="ellipse;whiteSpace=wrap;html=1;" vertex="1" parent="1">
          <mxGeometry x="-159" y="370" width="135" height="80" as="geometry" />
        </mxCell>
        <mxCell id="VAKgGAkGLzUgSfpYYlVm-26" value="" style="endArrow=block;endSize=16;endFill=0;html=1;rounded=0;fontSize=12;curved=1;exitX=0.5;exitY=0;exitDx=0;exitDy=0;exitPerimeter=0;" edge="1" parent="1" source="VAKgGAkGLzUgSfpYYlVm-23">
          <mxGeometry width="160" relative="1" as="geometry">
            <mxPoint x="-201" y="259" as="sourcePoint" />
            <mxPoint x="-349" y="187" as="targetPoint" />
          </mxGeometry>
        </mxCell>
        <mxCell id="VAKgGAkGLzUgSfpYYlVm-27" value="Include" style="endArrow=open;endSize=12;dashed=1;html=1;rounded=0;fontSize=12;curved=1;exitX=0.5;exitY=1;exitDx=0;exitDy=0;entryX=0.5;entryY=0;entryDx=0;entryDy=0;" edge="1" parent="1" source="VAKgGAkGLzUgSfpYYlVm-15" target="VAKgGAkGLzUgSfpYYlVm-24">
          <mxGeometry width="160" relative="1" as="geometry">
            <mxPoint x="-238" y="259" as="sourcePoint" />
            <mxPoint x="-78" y="259" as="targetPoint" />
          </mxGeometry>
        </mxCell>
      </root>
    </mxGraphModel>
  </diagram>
</mxfile>
